<svg width="32" height="32" xmlns="http://www.w3.org/2000/svg">
  <defs>
    <style>
      .fil2{fill:#242020}.fil3{fill:#f60}
    </style>
  </defs>
  <path fill="none" id="canvas_background" d="M-1-1h34v34H-1z"/>
  <g>
    <g stroke="null" id="_582458496">
      <path d="M5.78 24.147v-.84H3.146v.84h.878v3.896h.878v-3.896h.878zm3.897 3.896v-4.736h-.878v1.91H7.107v-1.91h-.878v4.736h.878v-1.986h1.692v1.986h.878zm3.454 0v-.84h-1.666v-1.101h1.596v-.84h-1.596v-1.115h1.666v-.84h-2.544v4.736h2.544zm6.031 0v-4.736h-.878v1.91h-1.692v-1.91h-.878v4.736h.878v-1.986h1.692v1.986h.878zm1.788 0v-4.736h-.878v4.736h.878zm4.929-4.736h-.923L23.68 26.91l-1.275-3.602h-.923l1.846 4.736h.718l1.833-4.736zm3.018 4.736v-.84h-1.666v-1.101h1.596v-.84H27.23v-1.115h1.666v-.84h-2.544v4.736h2.544z" id="_582453576" fill="#242020" fill-rule="nonzero"/>
      <g id="svg_2">
        <g stroke="null" id="svg_3">
          <path stroke="null" d="M18.084 14.929c-.974-.067-1.968-.133-2.985-.202l-1.006 2.114a26.037 26.037 0 003.99-1.912zM14.8 19.416c.283.474.568.95.856 1.428h3.223c.374-1.036.734-2.04 1.083-3.01l-.443-.696a31.807 31.807 0 01-4.72 2.278h0z" class="fil2" id="_582462312"/>
          <path stroke="null" d="M23.133 17.667c.268-.893.529-1.758.784-2.594l-.455-.673a29.612 29.612 0 01-3.532 2.493l.426.665 2.777.109zm-1.489-5.256l-2.108-.213c-.326.794-.662 1.617-1.007 2.465a23.714 23.714 0 003.115-2.252z" class="fil3" id="_582462864"/>
          <path stroke="null" d="M13.268 17.133l1.331-2.721-1.78-2.885-3.258-.322c-.55.88-1.123 1.792-1.714 2.739.606 1.055 1.224 2.124 1.847 3.209l3.143.117c.144-.044.288-.09.431-.137z" class="fil3" id="_582463464"/>
          <path stroke="null" d="M12.454 6.07l-3.023-.475c-.51.716-1.039 1.456-1.584 2.224l1.701 2.836c1.102.113 2.18.226 3.234.336l1.319-2.349c-.555-.867-1.104-1.726-1.647-2.572z" class="fil2" id="_582475248"/>
          <path stroke="null" d="M21.217 7.453l-2.474-.392-.981 2.067 1.697 2.567 2.608.28c.265-.744.525-1.468.778-2.169-.55-.793-1.092-1.576-1.628-2.353z" class="fil2" id="_582460440"/>
          <path stroke="null" d="M18.043 14.38l1.043-2.477c-.575-.872-1.142-1.737-1.704-2.592l-2.816-.366a993.71 993.71 0 01-1.293 2.36l1.775 2.855c1.02.075 2.018.147 2.995.22z" class="fil3" id="_582456312"/>
          <path stroke="null" d="M16.742 4.443c-.865-.159-1.745-.32-2.643-.487-.394.633-.8 1.282-1.22 1.951.54.842 1.088 1.693 1.641 2.552.954.127 1.886.254 2.8.378.344-.707.677-1.392 1.003-2.057l-1.581-2.337z" class="fil3" id="_582455640"/>
        </g>
        <path stroke="null" d="M20.788 5.02c3.326-.711 5.935-.35 6.791 1.206 1.434 2.605-2.59 7.569-8.985 11.088-6.396 3.518-12.742 4.26-14.175 1.655-.842-1.53.2-3.875 2.499-6.262-1.288 1.635-1.79 3.17-1.204 4.234 1.202 2.184 6.523 1.562 11.887-1.388 5.363-2.951 8.737-7.114 7.535-9.298-.598-1.086-2.214-1.478-4.348-1.235z" class="fil3" id="_582464184"/>
      </g>
    </g>
  </g>
</svg>
