/* XPM */
static char *_b681f58d13548ea82e643d798789789[] = {
/* columns rows colors chars-per-pixel */
"32 32 103 2 ",
"   c None",
".  c #16181A",
"X  c #131B1F",
"o  c #211D1D",
"O  c #201C1E",
"+  c #231F1F",
"@  c #0A1723",
"#  c #0C1822",
"$  c #0E1822",
"%  c #101922",
"&  c #111A23",
"*  c #161C22",
"=  c #151D25",
"-  c #161C24",
";  c #171D24",
":  c #191921",
">  c #1A1E22",
",  c #1F1F22",
"<  c #181D24",
"1  c #1A1E24",
"2  c #1B1F24",
"3  c #181E26",
"4  c #1D1F24",
"5  c #1F2024",
"6  c #212022",
"7  c #222122",
"8  c #242020",
"9  c #252020",
"0  c #252121",
"q  c #262121",
"w  c #272121",
"e  c #252122",
"r  c #252222",
"t  c #242223",
"y  c #262222",
"u  c #272222",
"i  c #262323",
"p  c #272323",
"a  c #232225",
"s  c #202226",
"d  c #272424",
"f  c #282222",
"g  c #282323",
"h  c #292323",
"j  c #282424",
"k  c #292424",
"l  c #282525",
"z  c #292525",
"x  c #2A2424",
"c  c #2B2424",
"v  c #2B2525",
"b  c #292626",
"n  c #2A2626",
"m  c #2B2626",
"M  c #2A2727",
"N  c #2B2727",
"B  c #2C2626",
"V  c #2C2727",
"C  c #2D2727",
"Z  c #4E2910",
"A  c #592E16",
"S  c #5F3013",
"D  c #D75600",
"F  c #DA5702",
"G  c #D95800",
"H  c #DD5800",
"J  c #E25900",
"K  c #E15B00",
"L  c #E25A00",
"P  c #E75B00",
"I  c #E55C00",
"U  c #EB5D00",
"Y  c #EC5F00",
"T  c #EF5E00",
"R  c #ED6001",
"E  c #F26100",
"W  c #F36100",
"Q  c #F56100",
"!  c #F66100",
"~  c #F56300",
"^  c #F66200",
"/  c #F86300",
"(  c #FC6400",
")  c #FD6500",
"_  c #FF6500",
"`  c #FF6600",
"'  c #FF6700",
"]  c #FF6800",
"[  c #FF6900",
"{  c #FF6A00",
"}  c #FF6B00",
"|  c #FF6C00",
" . c #FF6D00",
".. c #FF6E00",
"X. c #FF6F00",
"o. c #FF7000",
"O. c #FF7100",
"+. c #FF7200",
"@. c #FF7300",
"#. c #FF7400",
"$. c #FF7500",
"%. c #FF7600",
"&. c #FF7800",
/* pixels */
"                                                                ",
"                          ) [ ^ ~                               ",
"                          o.[ [ ....              #.#.o...      ",
"                j 0 0   #.[ ) ) ) o.                  ....o.    ",
"              j 0 0 0 0   o.[ ) ) [ #.                  [ [ ..  ",
"            j 0 + 0 0 0 - F ..) [ [ I 5 j 0 p           ..[ ..  ",
"            0 0 0 + 0 0 0   [ [ [ o.  0 0 0 0           [ [ ..  ",
"              j + 0 + 0 0   ) U J   @ 0 8 8 0 j       ..[ ..    ",
"              0 0 0 0 0 4   ..[ [ ..  a + 0 0 0 d     ..[ o.    ",
"                : $ & <   ..[ ) ) [ ... 0 + 0 f     ..) ..      ",
"                o...[ )   ..[ ) [ ) [ ) $ > , <   o.[ ..        ",
"              o.[ ) [ ..) P [ ) ) ) [ ..  T     ..[ ....        ",
"              ..) ) ) ) ..  o.[ [ [ ..  o.o.D ..) ....          ",
"            o.[ ) [ [ ) ) ..  o.[ ....  [ H ..[ ..Y             ",
"            [ [ ) ) ) ) ) o.  X         ) [ [ [ J [             ",
"    &.        o.[ ) [ ) [ ..  a < O Y ..[ [ ) G ..o.            ",
"    #.          ..[ [ [ ..  < A W ..[ [ ..I W ..[               ",
"  [ o.          ..[ ) ) /   ^ ..[ [ ..)   o.o...#.              ",
"  ..[ ..)             ^ [ [ [ [ ..[ S * s                       ",
"    ..) [ ..........[ [ [ ..o.[ Z & 7 0 0                       ",
"    o...) [ ) [ ) [ ......    - 7 0 0 0                         ",
"        ..........)           f p 0 0 j                         ",
"                                                                ",
"                                                                ",
"                                                                ",
"k p j   j     V     j j         j     V   j   B       B   0 j j ",
"  0 p   j     N   j 0           N     j   B   j p     V   j +   ",
"  k     f     k   0 0           j     f   f     j     k   j     ",
"  j     k k j f   d f B         j j j j   k     j   j     j j j ",
"  f     j     B   j             j     j   k       p j     j     ",
"  B     B     B   j j V         V     N   B       V p     B j V ",
"                                                                "
};
